<svg data-v-423bf9ae="" xmlns="http://www.w3.org/2000/svg" viewBox="0 0 429 90" class="iconLeft"><!----><!----><!----><g data-v-423bf9ae="" id="85969b5f-1e4f-473f-8e39-394568ba591c" fill="#1C484D" transform="matrix(4.713275543019363,0,0,4.713275543019363,73.85710246255945,1.284366573177067)"><path d="M0.84 12.77L0.84 12.77Q0.71 12.77 0.65 12.68L0.65 12.68L0.65 12.68Q0.59 12.59 0.59 12.46L0.59 12.46L0.59 12.46Q0.60 12.25 0.67 12.21L0.67 12.21L0.67 12.21Q0.74 12.17 0.94 12.17L0.94 12.17L0.94 12.17Q1.34 12.17 1.54 12.02L1.54 12.02L1.54 12.02Q1.74 11.87 1.79 11.66L1.79 11.66L1.79 11.66Q1.83 11.44 1.85 11.09L1.85 11.09L1.85 5.53L1.85 5.53Q1.83 5.18 1.79 4.96L1.79 4.96L1.79 4.96Q1.74 4.75 1.54 4.60L1.54 4.60L1.54 4.60Q1.34 4.45 0.94 4.45L0.94 4.45L0.85 4.45L0.85 4.45Q0.71 4.45 0.66 4.40L0.66 4.40L0.66 4.40Q0.60 4.35 0.59 4.16L0.59 4.16L0.59 4.16Q0.59 4.03 0.65 3.94L0.65 3.94L0.65 3.94Q0.71 3.85 0.84 3.85L0.84 3.85L0.84 3.85Q1.75 3.89 2.49 3.89L2.49 3.89L4.47 3.89L4.47 3.89Q5.24 3.89 5.71 4.00L5.71 4.00L5.71 4.00Q6.19 4.12 6.57 4.35L6.57 4.35L6.57 4.35Q6.93 4.59 7.14 5.01L7.14 5.01L7.14 5.01Q7.35 5.42 7.35 5.91L7.35 5.91L7.35 5.91Q7.35 6.78 6.78 7.29L6.78 7.29L6.78 7.29Q6.22 7.80 5.46 7.98L5.46 7.98L5.46 8.02L5.46 8.02Q6.19 8.02 6.78 8.31L6.78 8.31L6.78 8.31Q7.38 8.60 7.71 9.08L7.71 9.08L7.71 9.08Q8.04 9.56 8.04 10.12L8.04 10.12L8.04 10.12Q8.04 11.07 7.46 11.66L7.46 11.66L7.46 11.66Q6.87 12.25 6.00 12.50L6.00 12.50L6.00 12.50Q5.12 12.74 4.19 12.74L4.19 12.74L2.51 12.73L2.51 12.73Q1.75 12.73 0.84 12.77L0.84 12.77ZM3.23 7.74L3.82 7.74L3.82 7.74Q4.38 7.74 4.79 7.66L4.79 7.66L4.79 7.66Q5.21 7.57 5.53 7.21L5.53 7.21L5.53 7.21Q5.85 6.85 5.85 6.08L5.85 6.08L5.85 6.08Q5.85 4.41 4.21 4.41L4.21 4.41L3.23 4.41L3.23 7.74ZM4.24 12.18L4.24 12.18Q5.28 12.17 5.90 11.67L5.90 11.67L5.90 11.67Q6.52 11.17 6.52 10.04L6.52 10.04L6.52 10.04Q6.45 9.28 5.82 8.79L5.82 8.79L5.82 8.79Q5.18 8.30 3.81 8.30L3.81 8.30L3.23 8.30L3.23 11.09L3.23 11.09Q3.23 11.56 3.33 11.80L3.33 11.80L3.33 11.80Q3.42 12.03 3.62 12.10L3.62 12.10L3.62 12.10Q3.82 12.18 4.24 12.18L4.24 12.18ZM12.54 12.89L12.54 12.89Q11.49 12.89 10.76 12.45L10.76 12.45L10.76 12.45Q10.02 12.00 9.65 11.23L9.65 11.23L9.65 11.23Q9.27 10.46 9.27 9.52L9.27 9.52L9.27 9.52Q9.27 8.69 9.65 7.93L9.65 7.93L9.65 7.93Q10.04 7.17 10.75 6.69L10.75 6.69L10.75 6.69Q11.47 6.22 12.39 6.22L12.39 6.22L12.39 6.22Q13.64 6.22 14.31 6.85L14.31 6.85L14.31 6.85Q14.98 7.49 15.08 8.57L15.08 8.57L15.08 8.57Q15.08 9.03 14.83 9.20L14.83 9.20L14.83 9.20Q14.57 9.37 14.10 9.37L14.10 9.37L10.70 9.37L10.70 9.37Q10.70 10.67 11.24 11.43L11.24 11.43L11.24 11.43Q11.77 12.19 12.91 12.19L12.91 12.19L12.91 12.19Q13.51 12.19 13.93 11.94L13.93 11.94L13.93 11.94Q14.35 11.68 14.73 11.06L14.73 11.06L14.73 11.06Q14.80 10.99 14.87 10.99L14.87 10.99L14.87 10.99Q14.97 10.99 15.04 11.05L15.04 11.05L15.04 11.05Q15.18 11.13 15.18 11.30L15.18 11.30L15.18 11.30Q15.18 11.38 15.15 11.42L15.15 11.42L15.15 11.42Q14.71 12.12 14.05 12.51L14.05 12.51L14.05 12.51Q13.38 12.89 12.54 12.89L12.54 12.89ZM10.70 8.83L12.98 8.83L12.98 8.83Q13.69 8.83 13.73 8.25L13.73 8.25L13.73 8.25Q13.73 7.60 13.38 7.15L13.38 7.15L13.38 7.15Q13.03 6.71 12.39 6.71L12.39 6.71L12.39 6.71Q11.68 6.71 11.21 7.27L11.21 7.27L11.21 7.27Q10.75 7.84 10.70 8.83L10.70 8.83ZM18.77 12.89L18.77 12.89Q17.65 12.89 16.95 12.50L16.95 12.50L16.95 12.50Q16.25 12.11 16.25 11.40L16.25 11.40L16.25 11.40Q16.25 10.99 16.50 10.74L16.50 10.74L16.50 10.74Q16.74 10.49 17.14 10.49L17.14 10.49L17.14 10.49Q17.36 10.49 17.54 10.61L17.54 10.61L17.54 10.61Q17.71 10.74 17.71 10.81L17.71 10.81L17.71 10.81Q17.71 10.82 17.55 10.99L17.55 10.99L17.55 10.99Q17.39 11.16 17.39 11.47L17.39 11.47L17.39 11.47Q17.39 11.89 17.77 12.13L17.77 12.13L17.77 12.13Q18.16 12.38 18.89 12.38L18.89 12.38L18.89 12.38Q19.54 12.38 19.92 12.09L19.92 12.09L19.92 12.09Q20.29 11.80 20.29 11.28L20.29 11.28L20.29 11.28Q20.29 10.93 20.08 10.71L20.08 10.71L20.08 10.71Q19.87 10.49 19.55 10.36L19.55 10.36L19.55 10.36Q19.24 10.23 18.68 10.07L18.68 10.07L18.68 10.07Q17.99 9.87 17.56 9.67L17.56 9.67L17.56 9.67Q17.12 9.48 16.81 9.09L16.81 9.09L16.81 9.09Q16.51 8.69 16.51 8.06L16.51 8.06L16.51 8.06Q16.51 7.48 16.87 7.06L16.87 7.06L16.87 7.06Q17.23 6.64 17.82 6.43L17.82 6.43L17.82 6.43Q18.40 6.22 19.04 6.22L19.04 6.22L19.04 6.22Q19.87 6.22 20.48 6.57L20.48 6.57L20.48 6.57Q21.08 6.92 21.08 7.55L21.08 7.55L21.08 7.55Q21.08 7.92 20.85 8.19L20.85 8.19L20.85 8.19Q20.62 8.46 20.24 8.46L20.24 8.46L20.24 8.46Q20.02 8.46 19.85 8.33L19.85 8.33L19.85 8.33Q19.67 8.20 19.67 8.13L19.67 8.13L19.67 8.13Q19.67 8.12 19.78 8.02L19.78 8.02L19.78 8.02Q19.89 7.92 19.98 7.79L19.98 7.79L19.98 7.79Q20.08 7.66 20.08 7.48L20.08 7.48L20.08 7.48Q20.05 7.10 19.70 6.89L19.70 6.89L19.70 6.89Q19.35 6.68 18.87 6.68L18.87 6.68L18.87 6.68Q18.34 6.68 17.94 6.92L17.94 6.92L17.94 6.92Q17.54 7.17 17.54 7.60L17.54 7.60L17.54 7.60Q17.54 7.99 17.71 8.23L17.71 8.23L17.71 8.23Q17.88 8.46 18.21 8.60L18.21 8.60L18.21 8.60Q18.55 8.74 19.28 8.97L19.28 8.97L19.28 8.97Q20.02 9.21 20.44 9.42L20.44 9.42L20.44 9.42Q20.86 9.62 21.11 9.96L21.11 9.96L21.11 9.96Q21.35 10.30 21.35 10.86L21.35 10.86L21.35 10.86Q21.35 11.44 21.01 11.91L21.01 11.91L21.01 11.91Q20.68 12.38 20.09 12.64L20.09 12.64L20.09 12.64Q19.50 12.89 18.77 12.89L18.77 12.89ZM24.95 12.96L24.95 12.96Q24.26 12.96 23.77 12.46L23.77 12.46L23.77 12.46Q23.28 11.96 23.28 11.02L23.28 11.02L23.28 6.90L22.47 6.93L22.47 6.93Q22.39 6.93 22.33 6.85L22.33 6.85L22.33 6.85Q22.27 6.78 22.27 6.68L22.27 6.68L22.27 6.68Q22.27 6.55 22.32 6.46L22.32 6.46L22.32 6.46Q22.37 6.37 22.47 6.36L22.47 6.36L22.47 6.36Q22.96 6.26 23.23 6.04L23.23 6.04L23.23 6.04Q23.51 5.82 23.63 5.57L23.63 5.57L23.63 5.57Q23.76 5.31 23.94 4.77L23.94 4.77L23.94 4.77Q24.01 4.59 24.25 4.59L24.25 4.59L24.25 4.59Q24.35 4.59 24.44 4.64L24.44 4.64L24.44 4.64Q24.54 4.69 24.54 4.79L24.54 4.79L24.44 6.38L26.08 6.29L26.11 6.29L26.11 6.29Q26.29 6.29 26.29 6.55L26.29 6.55L26.29 6.55Q26.29 6.71 26.24 6.84L26.24 6.84L26.24 6.84Q26.19 6.97 26.12 6.97L26.12 6.97L24.56 6.93L24.56 11.19L24.56 11.19Q24.56 11.65 24.75 11.96L24.75 11.96L24.75 11.96Q24.93 12.26 25.37 12.26L25.37 12.26L25.37 12.26Q25.80 12.26 26.14 12.11L26.14 12.11L26.14 12.11Q26.32 12.04 26.36 12.04L26.36 12.04L26.36 12.04Q26.46 12.04 26.52 12.12L26.52 12.12L26.52 12.12Q26.57 12.19 26.63 12.32L26.63 12.32L26.63 12.32Q26.64 12.35 26.64 12.39L26.64 12.39L26.64 12.39Q26.64 12.45 26.56 12.52L26.56 12.52L26.56 12.52Q26.15 12.78 25.79 12.87L25.79 12.87L25.79 12.87Q25.44 12.96 24.95 12.96L24.95 12.96ZM28.08 12.77L28.08 12.77Q27.96 12.77 27.89 12.68L27.89 12.68L27.89 12.68Q27.83 12.59 27.83 12.46L27.83 12.46L27.83 12.46Q27.85 12.25 27.92 12.21L27.92 12.21L27.92 12.21Q27.99 12.17 28.18 12.17L28.18 12.17L28.18 12.17Q28.59 12.17 28.78 12.02L28.78 12.02L28.78 12.02Q28.98 11.87 29.03 11.66L29.03 11.66L29.03 11.66Q29.08 11.44 29.09 11.09L29.09 11.09L29.09 5.54L29.09 5.54Q29.08 5.18 29.03 4.97L29.03 4.97L29.03 4.97Q28.98 4.76 28.78 4.61L28.78 4.61L28.78 4.61Q28.59 4.45 28.18 4.45L28.18 4.45L28.10 4.45L28.10 4.45Q27.96 4.45 27.90 4.40L27.90 4.40L27.90 4.40Q27.85 4.35 27.83 4.16L27.83 4.16L27.83 4.16Q27.83 4.03 27.89 3.94L27.89 3.94L27.89 3.94Q27.96 3.85 28.08 3.85L28.08 3.85L28.08 3.85Q28.99 3.89 29.75 3.89L29.75 3.89L32.16 3.89L32.16 3.89Q33.24 3.91 33.96 4.24L33.96 4.24L33.96 4.24Q34.68 4.56 35.01 5.08L35.01 5.08L35.01 5.08Q35.35 5.59 35.35 6.17L35.35 6.17L35.35 6.17Q35.35 6.94 34.74 7.59L34.74 7.59L34.74 7.59Q34.13 8.23 33.08 8.51L33.08 8.51L33.32 8.89L33.32 8.89Q33.91 9.84 34.38 10.52L34.38 10.52L34.38 10.52Q34.86 11.20 35.42 11.79L35.42 11.79L35.42 11.79Q35.81 12.11 36.26 12.17L36.26 12.17L36.26 12.17Q36.29 12.17 36.39 12.17L36.39 12.17L36.39 12.17Q36.48 12.18 36.55 12.25L36.55 12.25L36.55 12.25Q36.61 12.32 36.61 12.46L36.61 12.46L36.61 12.46Q36.61 12.59 36.55 12.68L36.55 12.68L36.55 12.68Q36.48 12.77 36.36 12.77L36.36 12.77L35.99 12.75L35.99 12.75Q35.38 12.73 35.10 12.73L35.10 12.73L35.10 12.73Q34.54 12.61 34.14 12.33L34.14 12.33L34.14 12.33Q33.74 12.04 33.35 11.51L33.35 11.51L33.35 11.51Q32.94 10.98 32.21 9.77L32.21 9.77L31.96 9.37L31.96 9.37Q31.75 9.04 31.56 8.93L31.56 8.93L31.56 8.93Q31.36 8.81 30.88 8.81L30.88 8.81L30.48 8.81L30.48 11.09L30.48 11.09Q30.49 11.44 30.54 11.66L30.54 11.66L30.54 11.66Q30.59 11.87 30.79 12.02L30.79 12.02L30.79 12.02Q30.98 12.17 31.39 12.17L31.39 12.17L31.47 12.17L31.47 12.17Q31.60 12.17 31.66 12.22L31.66 12.22L31.66 12.22Q31.72 12.26 31.74 12.46L31.74 12.46L31.74 12.46Q31.74 12.59 31.68 12.68L31.68 12.68L31.68 12.68Q31.61 12.77 31.49 12.77L31.49 12.77L31.49 12.77Q30.59 12.73 29.74 12.73L29.74 12.73L29.74 12.73Q28.99 12.73 28.08 12.77L28.08 12.77ZM30.48 8.26L31.71 8.26L31.71 8.26Q33.80 8.26 33.80 6.30L33.80 6.30L33.80 6.30Q33.80 5.50 33.25 4.96L33.25 4.96L33.25 4.96Q32.70 4.41 31.46 4.41L31.46 4.41L31.46 4.41Q31.05 4.41 30.84 4.51L30.84 4.51L30.84 4.51Q30.63 4.61 30.55 4.84L30.55 4.84L30.55 4.84Q30.48 5.08 30.48 5.57L30.48 5.57L30.48 8.26ZM40.47 12.89L40.47 12.89Q39.42 12.89 38.69 12.45L38.69 12.45L38.69 12.45Q37.95 12.00 37.58 11.23L37.58 11.23L37.58 11.23Q37.20 10.46 37.20 9.52L37.20 9.52L37.20 9.52Q37.20 8.69 37.58 7.93L37.58 7.93L37.58 7.93Q37.97 7.17 38.68 6.69L38.68 6.69L38.68 6.69Q39.40 6.22 40.32 6.22L40.32 6.22L40.32 6.22Q41.57 6.22 42.24 6.85L42.24 6.85L42.24 6.85Q42.91 7.49 43.01 8.57L43.01 8.57L43.01 8.57Q43.01 9.03 42.76 9.20L42.76 9.20L42.76 9.20Q42.50 9.37 42.03 9.37L42.03 9.37L38.63 9.37L38.63 9.37Q38.63 10.67 39.16 11.43L39.16 11.43L39.16 11.43Q39.70 12.19 40.84 12.19L40.84 12.19L40.84 12.19Q41.44 12.19 41.86 11.94L41.86 11.94L41.86 11.94Q42.28 11.68 42.66 11.06L42.66 11.06L42.66 11.06Q42.73 10.99 42.80 10.99L42.80 10.99L42.80 10.99Q42.90 10.99 42.97 11.05L42.97 11.05L42.97 11.05Q43.11 11.13 43.11 11.30L43.11 11.30L43.11 11.30Q43.11 11.38 43.08 11.42L43.08 11.42L43.08 11.42Q42.64 12.12 41.98 12.51L41.98 12.51L41.98 12.51Q41.31 12.89 40.47 12.89L40.47 12.89ZM38.63 8.83L40.91 8.83L40.91 8.83Q41.62 8.83 41.66 8.25L41.66 8.25L41.66 8.25Q41.66 7.60 41.31 7.15L41.31 7.15L41.31 7.15Q40.96 6.71 40.32 6.71L40.32 6.71L40.32 6.71Q39.61 6.71 39.14 7.27L39.14 7.27L39.14 7.27Q38.68 7.84 38.63 8.83L38.63 8.83ZM47.28 12.89L47.28 12.89Q45.85 12.89 45.04 11.98L45.04 11.98L45.04 11.98Q44.23 11.07 44.23 9.55L44.23 9.55L44.23 9.55Q44.25 8.60 44.70 7.85L44.70 7.85L44.70 7.85Q45.14 7.10 45.88 6.67L45.88 6.67L45.88 6.67Q46.62 6.24 47.52 6.22L47.52 6.22L47.52 6.22Q48.41 6.22 49.06 6.55L49.06 6.55L49.06 6.55Q49.71 6.89 49.71 7.67L49.71 7.67L49.71 7.67Q49.71 8.11 49.45 8.44L49.45 8.44L49.45 8.44Q49.20 8.76 48.76 8.76L48.76 8.76L48.76 8.76Q48.50 8.76 48.31 8.62L48.31 8.62L48.31 8.62Q48.12 8.48 48.12 8.39L48.12 8.39L48.12 8.39Q48.12 8.37 48.24 8.26L48.24 8.26L48.24 8.26Q48.37 8.15 48.48 7.99L48.48 7.99L48.48 7.99Q48.58 7.83 48.58 7.62L48.58 7.62L48.58 7.62Q48.58 7.18 48.27 6.96L48.27 6.96L48.27 6.96Q47.95 6.73 47.50 6.73L47.50 6.73L47.50 6.73Q46.42 6.73 46.04 7.53L46.04 7.53L46.04 7.53Q45.65 8.32 45.65 9.51L45.65 9.51L45.65 9.51Q45.65 10.68 46.19 11.44L46.19 11.44L46.19 11.44Q46.72 12.19 47.60 12.19L47.60 12.19L47.60 12.19Q48.20 12.19 48.63 11.94L48.63 11.94L48.63 11.94Q49.06 11.68 49.41 11.14L49.41 11.14L49.41 11.14Q49.45 11.07 49.55 11.07L49.55 11.07L49.55 11.07Q49.62 11.07 49.70 11.12L49.70 11.12L49.70 11.12Q49.77 11.14 49.81 11.21L49.81 11.21L49.81 11.21Q49.85 11.28 49.85 11.35L49.85 11.35L49.85 11.35Q49.85 11.40 49.81 11.47L49.81 11.47L49.81 11.47Q49.35 12.12 48.66 12.51L48.66 12.51L48.66 12.51Q47.98 12.89 47.28 12.89L47.28 12.89ZM50.99 12.77L50.99 12.77Q50.89 12.77 50.83 12.68L50.83 12.68L50.83 12.68Q50.76 12.60 50.76 12.49L50.76 12.49L50.76 12.49Q50.78 12.31 50.85 12.27L50.85 12.27L50.85 12.27Q50.92 12.24 51.10 12.24L51.10 12.24L51.10 12.24Q51.46 12.24 51.62 12.11L51.62 12.11L51.62 12.11Q51.77 11.98 51.79 11.82L51.79 11.82L51.79 11.82Q51.81 11.65 51.81 11.28L51.81 11.28L51.81 8.08L51.81 8.08Q51.81 7.71 51.79 7.55L51.79 7.55L51.79 7.55Q51.77 7.38 51.62 7.25L51.62 7.25L51.62 7.25Q51.46 7.13 51.10 7.13L51.10 7.13L51.10 7.13Q50.93 7.13 50.85 7.08L50.85 7.08L50.85 7.08Q50.76 7.03 50.76 6.85L50.76 6.85L50.76 6.85Q50.76 6.76 50.82 6.69L50.82 6.69L50.82 6.69Q50.88 6.61 50.99 6.59L50.99 6.59L50.99 6.59Q51.87 6.47 52.50 6.23L52.50 6.23L52.50 6.23Q52.70 6.16 52.82 6.15L52.82 6.15L52.86 6.15L52.86 6.15Q53.09 6.15 53.09 6.41L53.09 6.41L53.09 11.28L53.09 11.28Q53.09 11.65 53.12 11.82L53.12 11.82L53.12 11.82Q53.14 11.98 53.30 12.11L53.30 12.11L53.30 12.11Q53.45 12.24 53.82 12.24L53.82 12.24L53.90 12.24L53.90 12.24Q54.01 12.24 54.07 12.28L54.07 12.28L54.07 12.28Q54.12 12.32 54.14 12.49L54.14 12.49L54.14 12.49Q54.14 12.60 54.08 12.68L54.08 12.68L54.08 12.68Q54.03 12.77 53.91 12.77L53.91 12.77L53.91 12.77Q53.10 12.73 52.44 12.73L52.44 12.73L52.44 12.73Q51.81 12.73 50.99 12.77L50.99 12.77ZM52.37 4.59L52.37 4.59Q51.98 4.59 51.72 4.35L51.72 4.35L51.72 4.35Q51.45 4.10 51.45 3.74L51.45 3.74L51.45 3.74Q51.45 3.42 51.77 3.16L51.77 3.16L51.77 3.16Q52.09 2.91 52.50 2.91L52.50 2.91L52.50 2.91Q52.85 2.91 53.07 3.16L53.07 3.16L53.07 3.16Q53.30 3.40 53.30 3.78L53.30 3.78L53.30 3.78Q53.30 4.12 53.03 4.35L53.03 4.35L53.03 4.35Q52.77 4.59 52.37 4.59L52.37 4.59ZM54.99 15.64L54.99 15.64Q54.89 15.64 54.83 15.55L54.83 15.55L54.83 15.55Q54.77 15.47 54.77 15.36L54.77 15.36L54.77 15.36Q54.78 15.18 54.84 15.14L54.84 15.14L54.84 15.14Q54.91 15.11 55.09 15.11L55.09 15.11L55.09 15.11Q55.44 15.11 55.59 14.98L55.59 14.98L55.59 14.98Q55.75 14.85 55.78 14.67L55.78 14.67L55.78 14.67Q55.82 14.49 55.82 14.15L55.82 14.15L55.82 8.08L55.82 8.08Q55.82 7.71 55.80 7.55L55.80 7.55L55.80 7.55Q55.78 7.38 55.62 7.25L55.62 7.25L55.62 7.25Q55.47 7.13 55.10 7.13L55.10 7.13L55.10 7.13Q54.94 7.13 54.85 7.08L54.85 7.08L54.85 7.08Q54.77 7.03 54.77 6.85L54.77 6.85L54.77 6.85Q54.77 6.76 54.82 6.69L54.82 6.69L54.82 6.69Q54.88 6.61 54.99 6.59L54.99 6.59L54.99 6.59Q55.90 6.45 56.49 6.23L56.49 6.23L56.49 6.23Q56.73 6.16 56.81 6.15L56.81 6.15L56.85 6.15L56.85 6.15Q57.08 6.15 57.08 6.41L57.08 6.41L57.08 7.08L57.12 7.08L57.12 7.08Q57.53 6.71 58.07 6.46L58.07 6.46L58.07 6.46Q58.62 6.22 59.11 6.22L59.11 6.22L59.11 6.22Q59.95 6.22 60.61 6.64L60.61 6.64L60.61 6.64Q61.28 7.06 61.66 7.82L61.66 7.82L61.66 7.82Q62.03 8.58 62.03 9.55L62.03 9.55L62.03 9.55Q62.03 10.53 61.59 11.29L61.59 11.29L61.59 11.29Q61.14 12.05 60.40 12.47L60.40 12.47L60.40 12.47Q59.65 12.89 58.83 12.89L58.83 12.89L58.83 12.89Q58.25 12.89 57.86 12.78L57.86 12.78L57.86 12.78Q57.47 12.66 57.15 12.46L57.15 12.46L57.09 12.46L57.09 14.15L57.09 14.15Q57.09 14.49 57.13 14.67L57.13 14.67L57.13 14.67Q57.16 14.85 57.32 14.98L57.32 14.98L57.32 14.98Q57.47 15.11 57.82 15.11L57.82 15.11L57.90 15.11L57.90 15.11Q58.02 15.11 58.07 15.15L58.07 15.15L58.07 15.15Q58.13 15.19 58.14 15.36L58.14 15.36L58.14 15.36Q58.14 15.47 58.09 15.55L58.09 15.55L58.09 15.55Q58.03 15.64 57.92 15.64L57.92 15.64L57.92 15.64Q57.11 15.60 56.45 15.60L56.45 15.60L56.45 15.60Q55.82 15.60 54.99 15.64L54.99 15.64ZM58.72 12.42L58.72 12.42Q59.70 12.42 60.15 11.55L60.15 11.55L60.15 11.55Q60.61 10.68 60.61 9.59L60.61 9.59L60.61 9.59Q60.61 8.50 60.10 7.71L60.10 7.71L60.10 7.71Q59.60 6.92 58.60 6.92L58.60 6.92L58.60 6.92Q58.11 6.92 57.77 7.11L57.77 7.11L57.77 7.11Q57.43 7.29 57.09 7.64L57.09 7.64L57.09 11.40L57.09 11.40Q57.26 11.82 57.69 12.12L57.69 12.12L57.69 12.12Q58.11 12.42 58.72 12.42L58.72 12.42ZM66.47 12.89L66.47 12.89Q65.42 12.89 64.69 12.45L64.69 12.45L64.69 12.45Q63.95 12.00 63.57 11.23L63.57 11.23L63.57 11.23Q63.20 10.46 63.20 9.52L63.20 9.52L63.20 9.52Q63.20 8.69 63.58 7.93L63.58 7.93L63.58 7.93Q63.97 7.17 64.68 6.69L64.68 6.69L64.68 6.69Q65.39 6.22 66.32 6.22L66.32 6.22L66.32 6.22Q67.56 6.22 68.24 6.85L68.24 6.85L68.24 6.85Q68.91 7.49 69.01 8.57L69.01 8.57L69.01 8.57Q69.01 9.03 68.75 9.20L68.75 9.20L68.75 9.20Q68.50 9.37 68.03 9.37L68.03 9.37L64.62 9.37L64.62 9.37Q64.62 10.67 65.16 11.43L65.16 11.43L65.16 11.43Q65.70 12.19 66.84 12.19L66.84 12.19L66.84 12.19Q67.44 12.19 67.86 11.94L67.86 11.94L67.86 11.94Q68.28 11.68 68.66 11.06L68.66 11.06L68.66 11.06Q68.73 10.99 68.80 10.99L68.80 10.99L68.80 10.99Q68.89 10.99 68.96 11.05L68.96 11.05L68.96 11.05Q69.10 11.13 69.10 11.30L69.10 11.30L69.10 11.30Q69.10 11.38 69.08 11.42L69.08 11.42L69.08 11.42Q68.64 12.12 67.98 12.51L67.98 12.51L67.98 12.51Q67.31 12.89 66.47 12.89L66.47 12.89ZM64.62 8.83L66.91 8.83L66.91 8.83Q67.62 8.83 67.66 8.25L67.66 8.25L67.66 8.25Q67.66 7.60 67.31 7.15L67.31 7.15L67.31 7.15Q66.96 6.71 66.32 6.71L66.32 6.71L66.32 6.71Q65.60 6.71 65.14 7.27L65.14 7.27L65.14 7.27Q64.68 7.84 64.62 8.83L64.62 8.83ZM72.70 12.89L72.70 12.89Q71.58 12.89 70.88 12.50L70.88 12.50L70.88 12.50Q70.18 12.11 70.18 11.40L70.18 11.40L70.18 11.40Q70.18 10.99 70.43 10.74L70.43 10.74L70.43 10.74Q70.67 10.49 71.06 10.49L71.06 10.49L71.06 10.49Q71.29 10.49 71.46 10.61L71.46 10.61L71.46 10.61Q71.64 10.74 71.64 10.81L71.64 10.81L71.64 10.81Q71.64 10.82 71.48 10.99L71.48 10.99L71.48 10.99Q71.32 11.16 71.32 11.47L71.32 11.47L71.32 11.47Q71.32 11.89 71.70 12.13L71.70 12.13L71.70 12.13Q72.09 12.38 72.81 12.38L72.81 12.38L72.81 12.38Q73.47 12.38 73.84 12.09L73.84 12.09L73.84 12.09Q74.21 11.80 74.21 11.28L74.21 11.28L74.21 11.28Q74.21 10.93 74.00 10.71L74.00 10.71L74.00 10.71Q73.79 10.49 73.48 10.36L73.48 10.36L73.48 10.36Q73.16 10.23 72.60 10.07L72.60 10.07L72.60 10.07Q71.92 9.87 71.48 9.67L71.48 9.67L71.48 9.67Q71.05 9.48 70.74 9.09L70.74 9.09L70.74 9.09Q70.43 8.69 70.43 8.06L70.43 8.06L70.43 8.06Q70.43 7.48 70.80 7.06L70.80 7.06L70.80 7.06Q71.16 6.64 71.74 6.43L71.74 6.43L71.74 6.43Q72.32 6.22 72.97 6.22L72.97 6.22L72.97 6.22Q73.79 6.22 74.40 6.57L74.40 6.57L74.40 6.57Q75.01 6.92 75.01 7.55L75.01 7.55L75.01 7.55Q75.01 7.92 74.78 8.19L74.78 8.19L74.78 8.19Q74.55 8.46 74.17 8.46L74.17 8.46L74.17 8.46Q73.95 8.46 73.77 8.33L73.77 8.33L73.77 8.33Q73.60 8.20 73.60 8.13L73.60 8.13L73.60 8.13Q73.60 8.12 73.71 8.02L73.71 8.02L73.71 8.02Q73.82 7.92 73.91 7.79L73.91 7.79L73.91 7.79Q74.00 7.66 74.00 7.48L74.00 7.48L74.00 7.48Q73.98 7.10 73.63 6.89L73.63 6.89L73.63 6.89Q73.28 6.68 72.80 6.68L72.80 6.68L72.80 6.68Q72.27 6.68 71.87 6.92L71.87 6.92L71.87 6.92Q71.47 7.17 71.47 7.60L71.47 7.60L71.47 7.60Q71.47 7.99 71.64 8.23L71.64 8.23L71.64 8.23Q71.81 8.46 72.14 8.60L72.14 8.60L72.14 8.60Q72.48 8.74 73.21 8.97L73.21 8.97L73.21 8.97Q73.95 9.21 74.37 9.42L74.37 9.42L74.37 9.42Q74.79 9.62 75.03 9.96L75.03 9.96L75.03 9.96Q75.28 10.30 75.28 10.86L75.28 10.86L75.28 10.86Q75.28 11.44 74.94 11.91L74.94 11.91L74.94 11.91Q74.61 12.38 74.02 12.64L74.02 12.64L74.02 12.64Q73.43 12.89 72.70 12.89L72.70 12.89Z"></path></g><!----><g data-v-423bf9ae="" id="08ae2407-2071-42bb-9435-e44dc5d7b783" transform="matrix(1.939655268093073,0,0,1.939655268093073,-18.151724965904066,-0.7517242256760213)" stroke="none" fill="#1C484D"><path d="M9.4 7.8l22.2-.1V.8c-5.1 4.6-22.2 7-22.2 7zM9.4 9.9v37.3h29.2V9.9H9.4zm11.2 15.3l.8 16.4c.1.7-.5 1.3-1.2 1.3s-1.3-.6-1.2-1.3l.8-16.4c-1.9-.3-3.3-2.7-3.3-5.5 0-3.1 1.7-5.5 3.8-5.5 2.1 0 3.8 2.5 3.8 5.5-.1 2.9-1.6 5.2-3.5 5.5zM30 43c-1 0-1.7-.6-1.6-1.3l.7-11.6c-1.6-4.8-3.1-12.2.7-15.7.4-.4 1.1-.1 1.1.4v14.6l.8 12.2c0 .8-.8 1.4-1.7 1.4z"></path></g><!----></svg>